# xmcd CD database file
#
# Track frame offsets:
#	150
#	13857
#	26040
#	39482
#	50362
#	62360
#	73705
#	90417
#	102037
#	116362
#
# Disc length: 1710 seconds
#
# Revision: 2
# Processed by: cddbd v1.4PL0 Copyright (c) Steve Scherf et al.
# Submitted via: CDex 1.50
#
DISCID=7506ac0a
DTITLE=Willie Nelson - To Lefty From Willie
DYEAR=1977
DGENRE=Country
TTITLE0=Mom and Dad's Waltz
TTITLE1=Look What Thoughts Will Do
TTITLE2=I Love You A Thousand Ways
TTITLE3=Always Late (With Your Kisses)
TTITLE4=I Want To Be With You Always
TTITLE5=She's Gone, Gone, Gone
TTITLE6=A Little Unfair
TTITLE7=I Never Go Around Mirrors
TTITLE8=That's The Way Love Goes
TTITLE9=Railroad Lady
EXTD=YEAR: 1977
EXTT0=
EXTT1=
EXTT2=
EXTT3=
EXTT4=
EXTT5=
EXTT6=
EXTT7=
EXTT8=
EXTT9=
PLAYORDER=
